<?xml version='1.0' encoding='utf-8'?>
<svg xmlns="http://www.w3.org/2000/svg" width="87.365952mm" height="130.05315mm" viewBox="0 0 87.365952 130.05315" version="1.1" id="svg5"> <defs id="defs2"> <pattern id="EMFhbasepattern" patternUnits="userSpaceOnUse" width="6" height="6" x="0" y="0"/> </defs> <g id="layer1" transform="translate(-102.90626,-36.221774)"> <g id="g3170" style="display:inline" transform="matrix(0.67568669,0,0,0.67568669,269.2172,22.767546)"/> <g id="g3172" style="display:inline" transform="matrix(0.67568669,0,0,0.67568669,269.2172,22.767546)"/> <g id="g3174" transform="matrix(0.67568669,0,0,0.67568669,269.2172,22.767546)"/> <g id="g3420" style="display:inline" transform="matrix(0.67568669,0,0,0.67568669,269.2172,22.767546)"> <g id="g3176"/> </g> <g id="g3424" transform="matrix(0.62058252,0,0,0.62058252,448.38565,38.963237)"/> <g id="g3426" transform="matrix(0.62058252,0,0,0.62058252,448.38565,38.963237)"/> <g id="g3428" transform="matrix(0.62058252,0,0,0.62058252,448.38565,38.963237)"/> <g id="g3620" transform="matrix(0.62058252,0,0,0.62058252,448.38565,38.963237)"/> <g id="g3630" transform="matrix(0.85392593,0,0,0.85392593,326.41397,12.525508)"/> <g id="g14584" transform="matrix(0.62058252,0,0,0.62058252,-496.93666,234.28584)"/> <g id="g14586" transform="matrix(0.62058252,0,0,0.62058252,-496.93666,234.28584)"/> <g id="g14588" transform="matrix(0.62058252,0,0,0.62058252,-496.93666,234.28584)"/> <g id="g14780" transform="matrix(0.62058252,0,0,0.62058252,-496.93666,234.28584)"/> <g id="g17767" transform="matrix(0.67568669,0,0,0.67568669,-1004.3184,22.767546)"/> <g id="g23902" transform="matrix(0.67568669,0,0,0.67568669,59.618146,27.672705)"/> <g id="g5861"> <g id="g23910" transform="matrix(0.52003795,-0.14179966,0.14179966,0.52003795,46.504803,30.265557)" style="display:inline"> <path id="path23904" style="fill:#008000;stroke:none;stroke-width:1.25064;stroke-linecap:square;paint-order:stroke markers fill" d="m 75.07855,250.42795 c 0,10.01513 -3.73853,18.134 -8.35024,18.13401 -4.61171,0 -8.35024,-8.11887 -8.35024,-18.13401 0,-10.01515 7.66624,-21.76083 8.75428,-21.76083 1.32614,0 7.9462,11.74569 7.9462,21.76083 z"/> <path id="path23906" style="fill:#338000;stroke:none;stroke-width:1.25064;stroke-linecap:square;paint-order:stroke markers fill" d="m 62.64993,248.4532 c 5.007565,8.67336 5.829338,17.57377 1.835485,19.87963 -3.993858,2.30586 -11.290955,-2.85603 -16.298525,-11.52939 -5.007575,-8.67338 -4.241256,-22.67855 -3.298986,-23.22257 1.148471,-0.66307 12.754456,6.19896 17.762026,14.87233 z"/> <path id="path23908" style="fill:#44aa00;stroke:none;stroke-width:1.25064;stroke-linecap:square;paint-order:stroke markers fill" d="m 71.469799,249.06403 c -5.00756,8.67336 -5.82933,17.57377 -1.83548,19.87963 3.99386,2.30586 11.290955,-2.85603 16.298529,-11.52939 5.00757,-8.67338 4.24125,-22.67855 3.29898,-23.22257 -1.14847,-0.66307 -12.754454,6.19896 -17.762029,14.87233 z"/> </g> <g id="g23930" transform="matrix(0.65266322,0.17488058,-0.17488058,0.65266322,27.819488,-15.696787)"> <path id="path23914" style="fill:#ff0000;stroke:none;stroke-width:5.25483;stroke-linecap:square;stroke-miterlimit:4;stroke-dasharray:none;paint-order:stroke markers fill" d="m 900.95703,59.246094 v 14.652344 l 4.69141,2.708984 h -4.69141 V 559.24609 h 25 V 99.164062 l -4.68945,-2.707031 h 4.68945 V 59.246094 Z" transform="scale(0.26458333)"/> <path id="path23916" style="fill:#ffffff;stroke:none;stroke-width:4.65014;stroke-linecap:square;stroke-miterlimit:4;stroke-dasharray:none;paint-order:stroke markers fill" d="m 900.95703,73.898438 v 2.708984 8.123047 l 20.31055,11.726562 4.68945,2.707031 V 96.457031 88.333984 L 905.64844,76.607422 Z" transform="scale(0.26458333)"/> <path id="path23918" style="fill:#ffffff;stroke:none;stroke-width:1.23035;stroke-linecap:square;stroke-miterlimit:4;stroke-dasharray:none;paint-order:stroke markers fill" d="m 238.37821,38.955125 v 0.716752 2.149223 l 5.37383,3.102653 1.24075,0.716235 V 44.923753 42.77453 l -5.37331,-3.102653 z"/> <path id="path23920" style="fill:#ffffff;stroke:none;stroke-width:1.23035;stroke-linecap:square;stroke-miterlimit:4;stroke-dasharray:none;paint-order:stroke markers fill" d="m 238.37821,58.357949 v 0.716752 2.149223 l 5.37383,3.102653 1.24075,0.716235 v -0.716235 -2.149223 l -5.37331,-3.102653 z"/> <path id="path23922" style="fill:#ffffff;stroke:none;stroke-width:1.23035;stroke-linecap:square;stroke-miterlimit:4;stroke-dasharray:none;paint-order:stroke markers fill" d="m 238.37821,77.760774 v 0.716752 2.149223 l 5.37383,3.102653 1.24075,0.716235 v -0.716235 -2.149223 l -5.37331,-3.102653 z"/> <path id="path23924" style="fill:#ffffff;stroke:none;stroke-width:1.23035;stroke-linecap:square;stroke-miterlimit:4;stroke-dasharray:none;paint-order:stroke markers fill" d="m 238.37821,97.163607 v 0.716752 2.149221 l 5.37383,3.10265 1.24075,0.71624 v -0.71624 -2.14922 l -5.37331,-3.102651 z"/> <path id="path23926" style="fill:#ffffff;stroke:none;stroke-width:1.23035;stroke-linecap:square;stroke-miterlimit:4;stroke-dasharray:none;paint-order:stroke markers fill" d="m 238.37821,116.56641 v 0.71676 2.14924 l 5.37383,3.10267 1.24075,0.71624 v -0.71624 -2.14924 l -5.37331,-3.10267 z"/> <path id="path23928" style="fill:#ffffff;stroke:none;stroke-width:1.23035;stroke-linecap:square;stroke-miterlimit:4;stroke-dasharray:none;paint-order:stroke markers fill" d="m 238.37821,135.96923 v 0.71676 2.14924 l 5.37383,3.10267 1.24075,0.71624 v -0.71624 -2.14924 l -5.37331,-3.10267 z"/> </g> <path id="path23932" style="fill:none;stroke:#f2f2f2;stroke-width:1.43021;stroke-linecap:square;stroke-miterlimit:4;stroke-dasharray:none;paint-order:stroke markers fill" d="m 134.52541,86.079208 7.5379,68.033832 h 17.44737 V 86.079208 Z m 25.87915,0 v 68.033832 h 17.44736 l 7.5379,-68.033832 z"/> <path id="path23934" style="opacity:0.5;fill:#ffffff;stroke:none;stroke-width:0.209843;stroke-linecap:square;stroke-miterlimit:4;stroke-dasharray:none;paint-order:stroke markers fill" d="m 159.9035,54.346567 a 28.604068,25.922437 0 0 0 -28.54995,25.922439 h 57.20814 a 28.604068,25.922437 0 0 0 -28.60407,-25.922439 28.604068,25.922437 0 0 0 -0.0541,0 z"/> <rect style="opacity:0.85;fill:#f2f2f2;stroke:none;stroke-width:0.813723;stroke-linecap:square;stroke-miterlimit:4;stroke-dasharray:none;paint-order:stroke markers fill" id="rect23936" width="60.629185" height="5.3632631" x="129.64302" y="80.269005" ry="2.6816316"/> <path style="opacity:0.75;fill:#ffffff;stroke:none;stroke-width:0.155579px;stroke-linecap:butt;stroke-linejoin:miter;stroke-opacity:1" d="m 169.90922,61.199037 c 3.13097,1.306362 6.31723,4.165416 7.29225,5.630633 2.4375,3.347695 2.81175,7.150494 -0.5525,7.745722 -5.02784,0.860125 -6.65452,-4.131955 -9.35412,-6.601944 -2.47668,-1.804012 -5.57031,-2.261325 -7.26583,-4.469927 -1.45817,-5.599727 8.20813,-3.58054 9.8802,-2.304484 z" id="path23938"/> <path style="fill:#d400aa;stroke:none;stroke-width:0.178775px;stroke-linecap:butt;stroke-linejoin:miter;stroke-opacity:1" d="m 134.52541,86.079208 7.5379,68.033832 h 35.78861 l 7.5379,-68.033832 z" id="path23940"/> <path style="fill:#aa0088;stroke:none;stroke-width:0.178775px;stroke-linecap:butt;stroke-linejoin:miter;stroke-opacity:1" d="m 134.52541,86.079208 7.5379,68.033832 h 35.78861 c 0,0 0.86894,-6.37609 -4.68692,-14.74961 -11.26403,-10.23781 -12.12558,-10.89434 -15.64141,-16.79975 -5.81106,-9.29559 -3.35547,-12.20684 -3.35547,-22.50815 0,-10.301317 -19.64271,-13.976322 -19.64271,-13.976322 z" id="path23942"/> <circle style="opacity:0.5;fill:#ffffff;stroke:none;stroke-width:1.43021;stroke-linecap:square;stroke-miterlimit:4;stroke-dasharray:none;paint-order:stroke markers fill" id="circle23944" cx="143.03908" cy="99.55722" r="2.7268174"/> <path style="opacity:0.65;fill:#ffffff;stroke:none;stroke-width:0.137866px;stroke-linecap:butt;stroke-linejoin:miter;stroke-opacity:1" d="m 176.0185,101.4309 c -2.67574,-1.281 -7.76666,44.51944 -5.03484,45.27604 0,0 1.43382,2.41989 5.05694,-24.23237 2.38141,-17.51815 -0.0221,-21.04367 -0.0221,-21.04367 z" id="path23946"/> <circle style="opacity:0.5;fill:#ffffff;stroke:none;stroke-width:0.755999;stroke-linecap:square;stroke-miterlimit:4;stroke-dasharray:none;paint-order:stroke markers fill" id="circle23948" cx="144.75299" cy="118.98155" r="1.4413834"/> <circle style="opacity:0.5;fill:#ffffff;stroke:none;stroke-width:0.755999;stroke-linecap:square;stroke-miterlimit:4;stroke-dasharray:none;paint-order:stroke markers fill" id="circle23950" cx="164.46297" cy="148.8322" r="1.4413834"/> <circle style="opacity:0.5;fill:#550000;stroke:none;stroke-width:1.0931;stroke-linecap:square;stroke-miterlimit:4;stroke-dasharray:none;paint-order:stroke markers fill" id="circle23952" cx="148.96635" cy="143.19057" r="2.0841005"/> <circle style="opacity:0.5;fill:#ffffff;stroke:none;stroke-width:1.35529;stroke-linecap:square;stroke-miterlimit:4;stroke-dasharray:none;paint-order:stroke markers fill" id="circle23954" cx="152.32277" cy="129.69351" r="2.5839915"/> <circle style="opacity:0.5;fill:#550000;stroke:none;stroke-width:1.0931;stroke-linecap:square;stroke-miterlimit:4;stroke-dasharray:none;paint-order:stroke markers fill" id="circle23956" cx="149.10918" cy="108.91233" r="2.0841005"/> <circle style="opacity:0.5;fill:#ffffff;stroke:none;stroke-width:0.475081;stroke-linecap:square;stroke-miterlimit:4;stroke-dasharray:none;paint-order:stroke markers fill" id="circle23958" cx="160.49954" cy="140.08411" r="0.9057858"/> <circle style="opacity:0.5;fill:#550000;stroke:none;stroke-width:0.475081;stroke-linecap:square;stroke-miterlimit:4;stroke-dasharray:none;paint-order:stroke markers fill" id="circle23960" cx="158.98463" cy="108.57421" r="0.9057858"/> <circle style="opacity:0.5;fill:#ffffff;stroke:none;stroke-width:0.475081;stroke-linecap:square;stroke-miterlimit:4;stroke-dasharray:none;paint-order:stroke markers fill" id="circle23962" cx="165.44821" cy="125.74306" r="0.9057858"/> <circle style="opacity:0.5;fill:#550000;stroke:none;stroke-width:0.475081;stroke-linecap:square;stroke-miterlimit:4;stroke-dasharray:none;paint-order:stroke markers fill" id="circle23964" cx="179.08229" cy="94.940125" r="0.9057858"/> <circle style="opacity:0.5;fill:#ffffff;stroke:none;stroke-width:0.475081;stroke-linecap:square;stroke-miterlimit:4;stroke-dasharray:none;paint-order:stroke markers fill" id="circle23966" cx="149.99625" cy="89.2845" r="0.9057858"/> <circle style="opacity:0.5;fill:#550000;stroke:none;stroke-width:0.475081;stroke-linecap:square;stroke-miterlimit:4;stroke-dasharray:none;paint-order:stroke markers fill" id="circle23968" cx="160.90352" cy="95.849068" r="0.9057858"/> <circle style="opacity:0.5;fill:#ffffff;stroke:none;stroke-width:0.475081;stroke-linecap:square;stroke-miterlimit:4;stroke-dasharray:none;paint-order:stroke markers fill" id="circle23970" cx="169.58894" cy="106.25137" r="0.9057858"/> <circle style="opacity:0.5;fill:#ffffff;stroke:none;stroke-width:0.475081;stroke-linecap:square;stroke-miterlimit:4;stroke-dasharray:none;paint-order:stroke markers fill" id="circle23972" cx="158.47968" cy="117.15863" r="0.9057858"/> <circle style="opacity:0.5;fill:#550000;stroke:none;stroke-width:0.475081;stroke-linecap:square;stroke-miterlimit:4;stroke-dasharray:none;paint-order:stroke markers fill" id="circle23974" cx="177.36542" cy="137.86224" r="0.9057858"/> <circle style="opacity:0.5;fill:#ffffff;stroke:none;stroke-width:0.475081;stroke-linecap:square;stroke-miterlimit:4;stroke-dasharray:none;paint-order:stroke markers fill" id="circle23976" cx="178.27437" cy="123.52121" r="0.9057858"/> <circle style="opacity:0.5;fill:#550000;stroke:none;stroke-width:1.35529;stroke-linecap:square;stroke-miterlimit:4;stroke-dasharray:none;paint-order:stroke markers fill" id="circle23978" cx="167.26978" cy="114.94849" r="2.5839915"/> <circle style="opacity:0.5;fill:#ffffff;stroke:none;stroke-width:1.35529;stroke-linecap:square;stroke-miterlimit:4;stroke-dasharray:none;paint-order:stroke markers fill" id="circle23980" cx="170.09758" cy="97.274673" r="2.5839915"/> <circle style="opacity:0.5;fill:#550000;stroke:none;stroke-width:0.475081;stroke-linecap:square;stroke-miterlimit:4;stroke-dasharray:none;paint-order:stroke markers fill" id="circle23982" cx="172.21475" cy="129.98477" r="0.9057858"/> <g id="g23992" transform="matrix(-0.34637128,0,0,0.34637128,234.57287,41.772291)"> <path id="path23984" style="fill:#008000;stroke:none;stroke-width:1.31074;stroke-linecap:square;paint-order:stroke markers fill" d="m 290.44389,286.5924 a 12.303432,24.205664 30 0 1 4.61931,-23.12363 12.303432,24.205664 30 0 1 18.53876,-15.66442 12.303432,24.205664 30 0 0 -16.26033,15.2221 12.303432,24.205664 30 0 0 -5.24828,20.70901 z"/> <path style="fill:#800000;stroke:none;stroke-width:0.230319px;stroke-linecap:butt;stroke-linejoin:miter;stroke-opacity:1" d="m 281.11467,317.09531 c -17.80026,-3.01594 -22.55387,-34.25778 -12.34823,-42.02295 7.85512,-5.61499 13.74647,-3.8873 17.67402,-0.43192 3.92757,3.45537 14.40108,3.45537 17.34673,2.59153 12.76904,-3.36593 11.52131,14.27028 10.24207,20.71056 -5.50107,26.75376 -32.91459,19.15278 -32.91459,19.15278 z" id="path23986"/> <path id="path23988" style="fill:#008000;stroke:none;stroke-width:0.0804745px;stroke-linecap:butt;stroke-linejoin:miter;stroke-opacity:1" d="m 294.935,237.33307 c 1.85766,-0.14294 5.40537,-0.23874 8.31644,0.2662 10.35046,1.79534 10.35052,10.20508 10.35052,10.20508 0,0 -16.84676,-1.13483 -21.0429,-3.96959 -4.19613,-2.83475 -2.87521,-5.76305 -2.87521,-5.76305 0,0 0.43815,-0.3683 5.25115,-0.73864 z m 0.33956,2.24401 16.6507,7.24776 c 0,0 -9.59881,-5.16047 -16.6507,-7.24776 z"/> <path id="path23990" style="fill:#008000;stroke:none;stroke-width:0.0804745px;stroke-linecap:butt;stroke-linejoin:miter;stroke-opacity:1" d="m 330.25707,261.24721 c -0.55721,-1.77788 -1.78585,-5.10742 -3.33583,-7.62275 -5.51102,-8.94337 -13.31928,-5.82011 -13.31928,-5.82011 0,0 7.31043,15.22034 11.50086,18.06355 4.19041,2.84319 6.41868,0.5292 6.41868,0.5292 0,0 0.17923,-0.54359 -1.26443,-5.14989 z m -2.20962,0.51814 -12.91332,-12.768 c 0,0 8.3563,6.99569 12.91332,12.768 z"/> </g> <g id="g24000" transform="matrix(0.11839869,0.07528133,-0.07528133,0.11839869,113.2451,105.87416)"> <circle style="fill:#2a7fff;stroke:none;stroke-width:6.13908;stroke-linecap:square;paint-order:stroke markers fill" id="circle23994" cx="258.93506" cy="267.76767" r="32.359158"/> <path style="fill:none;stroke:#003380;stroke-width:1.32292;stroke-linecap:square;stroke-miterlimit:4;stroke-dasharray:none;paint-order:stroke markers fill" id="path23996" transform="matrix(0.74743872,-0.25160681,0.25160681,0.74743872,-3.537712,130.92836)" d="m 253.78357,254.44647 10.0433,-1.66453 -8.59866,5.4499 4.68661,9.03737 -7.8403,-6.49369 -7.1468,7.24993 3.75308,-9.46323 -9.10358,-4.55666 10.15984,0.6451 1.52048,-10.06611 z"/> <path style="opacity:0.75;fill:#ffffff;stroke:none;stroke-width:0.154753px;stroke-linecap:butt;stroke-linejoin:miter;stroke-opacity:1" d="m 276.04127,248.12733 c 3.11435,1.29943 6.28369,4.1433 7.25354,5.60075 2.42456,3.32991 2.79682,7.11252 -0.54957,7.7046 -5.00115,0.85555 -6.61919,-4.11003 -9.30445,-6.5669 -2.46354,-1.79443 -5.54075,-2.24932 -7.22727,-4.4462 -1.45042,-5.57 8.16456,-3.56153 9.82775,-2.29225 z" id="path23998"/> </g> <g id="g24036" transform="matrix(0.3467572,-0.14797714,0.14797714,0.3467572,-1.1530858,90.752152)" style="display:inline"> <path style="fill:#008000;stroke:none;stroke-width:0.516548px;stroke-linecap:butt;stroke-linejoin:miter;stroke-opacity:1" d="m 249.28959,274.91104 c 0,0 2.17357,-8.90814 -6.53707,-10.21942 -8.71065,-1.31127 -15.213,1.9861 -15.213,1.9861 0,0 15.213,-1.9861 21.75007,8.23332 z" id="path24002"/> <path style="fill:#008000;stroke:none;stroke-width:0.516548px;stroke-linecap:butt;stroke-linejoin:miter;stroke-opacity:1" d="m 253.26383,274.47913 c 0,0 -2.17357,-8.90814 6.53707,-10.21942 8.71065,-1.31127 15.213,1.9861 15.213,1.9861 0,0 -15.213,-1.9861 -21.75007,8.23332 z" id="path24004"/> <rect style="fill:#008000;stroke:none;stroke-width:0.938696;stroke-linecap:square;paint-order:stroke markers fill" id="rect24006" width="1.0771999" height="15.353068" x="252.41734" y="256.54868" ry="0.42127529"/> <path style="fill:#008000;stroke:none;stroke-width:0.516548px;stroke-linecap:butt;stroke-linejoin:miter;stroke-opacity:1" d="m 250.17452,275.78473 c 0,0 6.33644,-6.62789 -0.55156,-12.11881 -6.88801,-5.49092 -14.16789,-5.88648 -14.16789,-5.88648 0,0 14.16789,5.88648 14.71945,18.00529 z" id="path24008"/> <circle style="fill:#d400aa;stroke:none;stroke-width:2.11667;stroke-linecap:square;paint-order:stroke markers fill" id="circle24010" cx="240.14873" cy="275.89029" r="6.0469108"/> <circle style="fill:#aa0088;stroke:none;stroke-width:2.11667;stroke-linecap:square;paint-order:stroke markers fill" id="circle24012" cx="248.13931" cy="273.08279" r="6.0469108"/> <circle style="fill:#d400aa;stroke:none;stroke-width:2.11667;stroke-linecap:square;paint-order:stroke markers fill" id="circle24014" cx="248.89519" cy="279.23764" r="6.0469108"/> <path style="fill:#008000;stroke:none;stroke-width:0.516548px;stroke-linecap:butt;stroke-linejoin:miter;stroke-opacity:1" d="m 255.66153,273.7331 c 0,0 -6.33644,-6.62789 0.55156,-12.11881 6.88801,-5.49092 14.16789,-5.88648 14.16789,-5.88648 0,0 -14.16789,5.88648 -14.71945,18.00529 z" id="path24016"/> <circle style="fill:#d400aa;stroke:none;stroke-width:2.11667;stroke-linecap:square;paint-order:stroke markers fill" id="circle24018" cx="257.85754" cy="274.37857" r="6.0469108"/> <circle style="fill:#d400aa;stroke:none;stroke-width:2.11667;stroke-linecap:square;paint-order:stroke markers fill" id="circle24020" cx="266.81995" cy="275.67435" r="6.0469108"/> <circle style="fill:#ff2ad4;stroke:none;stroke-width:2.11667;stroke-linecap:square;paint-order:stroke markers fill" id="circle24022" cx="243.60411" cy="284.42075" r="6.0469108"/> <circle style="fill:#c837ab;stroke:none;stroke-width:2.11667;stroke-linecap:square;paint-order:stroke markers fill" id="circle24024" cx="264.01245" cy="283.44891" r="6.0469108"/> <circle style="fill:#d400aa;stroke:none;stroke-width:2.11667;stroke-linecap:square;paint-order:stroke markers fill" id="circle24026" cx="254.61815" cy="290.14368" r="6.0469108"/> <circle style="fill:#800066;stroke:none;stroke-width:2.11667;stroke-linecap:square;paint-order:stroke markers fill" id="circle24028" cx="253.53833" cy="283.44891" r="6.0469108"/> <circle style="fill:#c837ab;stroke:none;stroke-width:2.11667;stroke-linecap:square;paint-order:stroke markers fill" id="circle24030" cx="247.05949" cy="291.97937" r="6.0469108"/> <circle style="fill:#aa0088;stroke:none;stroke-width:2.11667;stroke-linecap:square;paint-order:stroke markers fill" id="circle24032" cx="260.12512" cy="292.84323" r="6.0469108"/> <circle style="fill:#d400aa;stroke:none;stroke-width:2.11667;stroke-linecap:square;paint-order:stroke markers fill" id="circle24034" cx="253.43036" cy="300.94174" r="6.0469108"/> </g> <g id="g24072" transform="matrix(0.7572614,0,0,0.7572614,31.234566,-41.519916)" style="display:inline"> <path style="fill:#008000;stroke:none;stroke-width:0.351954px;stroke-linecap:butt;stroke-linejoin:miter;stroke-opacity:1" d="m 149.75022,240.48568 c 0,0 4.24203,-4.58681 -0.51244,-8.24989 -4.75449,-3.66307 -9.71847,-3.85044 -9.71847,-3.85044 0,0 9.71847,3.85044 10.23091,12.10033 z" id="path24038"/> <path style="fill:#008000;stroke:none;stroke-width:0.351954px;stroke-linecap:butt;stroke-linejoin:miter;stroke-opacity:1" d="m 152.26031,241.54335 c 0,0 1.65273,-6.02512 7.27492,-3.92412 5.62219,2.101 8.40421,6.21641 8.40421,6.21641 0,0 -8.40421,-6.21641 -15.67913,-2.29229 z" id="path24040"/> <rect style="fill:#008000;stroke:none;stroke-width:0.639587;stroke-linecap:square;paint-order:stroke markers fill" id="rect24042" width="0.73395783" height="10.460922" x="249.81905" y="124.99934" ry="0.28703889" transform="rotate(29.051481)"/> <path style="fill:#008000;stroke:none;stroke-width:0.351954px;stroke-linecap:butt;stroke-linejoin:miter;stroke-opacity:1" d="m 149.98824,241.29887 c 0,0 5.96711,-1.85128 3.68115,-7.40084 -2.28597,-5.54955 -6.49121,-8.19381 -6.49121,-8.19381 0,0 6.49121,8.19381 2.81006,15.59465 z" id="path24044"/> <circle style="fill:#7137c8;stroke:none;stroke-width:1.44221;stroke-linecap:square;paint-order:stroke markers fill" id="circle24046" cx="241.45973" cy="138.17789" r="4.1201057" transform="rotate(29.051481)"/> <circle style="fill:#9955ff;stroke:none;stroke-width:1.44221;stroke-linecap:square;paint-order:stroke markers fill" id="circle24048" cx="246.90417" cy="136.26498" r="4.1201057" transform="rotate(29.051481)"/> <circle style="fill:#660080;stroke:none;stroke-width:1.44221;stroke-linecap:square;paint-order:stroke markers fill" id="circle24050" cx="247.41919" cy="140.45863" r="4.1201057" transform="rotate(29.051481)"/> <path style="fill:#008000;stroke:none;stroke-width:0.351954px;stroke-linecap:butt;stroke-linejoin:miter;stroke-opacity:1" d="m 153.93529,241.89231 c 0,0 -1.58126,-6.04428 4.3382,-7.03586 5.91946,-0.99157 10.38646,1.18147 10.38646,1.18147 0,0 -10.38646,-1.18147 -14.72466,5.85439 z" id="path24052"/> <circle style="fill:#7137c8;stroke:none;stroke-width:1.44221;stroke-linecap:square;paint-order:stroke markers fill" id="circle24054" cx="253.52576" cy="137.14787" r="4.1201057" transform="rotate(29.051481)"/> <circle style="fill:#9955ff;stroke:none;stroke-width:1.44221;stroke-linecap:square;paint-order:stroke markers fill" id="circle24056" cx="259.63235" cy="138.03075" r="4.1201057" transform="rotate(29.051481)"/> <circle style="fill:#442178;stroke:none;stroke-width:1.44221;stroke-linecap:square;paint-order:stroke markers fill" id="circle24058" cx="243.81409" cy="143.99017" r="4.1201057" transform="rotate(29.051481)"/> <circle style="fill:#8d5fd3;stroke:none;stroke-width:1.44221;stroke-linecap:square;paint-order:stroke markers fill" id="circle24060" cx="257.71945" cy="143.328" r="4.1201057" transform="rotate(29.051481)"/> <circle style="fill:#440055;stroke:none;stroke-width:1.44221;stroke-linecap:square;paint-order:stroke markers fill" id="circle24062" cx="251.31857" cy="147.88954" r="4.1201057" transform="rotate(29.051481)"/> <circle style="fill:#440055;stroke:none;stroke-width:1.44221;stroke-linecap:square;paint-order:stroke markers fill" id="circle24064" cx="250.58284" cy="143.328" r="4.1201057" transform="rotate(29.051481)"/> <circle style="fill:#7137c8;stroke:none;stroke-width:1.44221;stroke-linecap:square;paint-order:stroke markers fill" id="circle24066" cx="246.16843" cy="149.14029" r="4.1201057" transform="rotate(29.051481)"/> <circle style="fill:#7137c8;stroke:none;stroke-width:1.44221;stroke-linecap:square;paint-order:stroke markers fill" id="circle24068" cx="255.07079" cy="149.7289" r="4.1201057" transform="rotate(29.051481)"/> <circle style="fill:#5a2ca0;stroke:none;stroke-width:1.44221;stroke-linecap:square;paint-order:stroke markers fill" id="circle24070" cx="250.50926" cy="155.24687" r="4.1201057" transform="rotate(29.051481)"/> </g> <g id="g24110" transform="matrix(0.27946769,0.1074442,-0.1074442,0.27946769,80.279202,92.400405)"> <g id="g24098" transform="translate(6.3513514,7.4324324)"> <path style="fill:#ff0000;stroke:none;stroke-width:0.264583px;stroke-linecap:butt;stroke-linejoin:miter;stroke-opacity:1" d="m 232.29447,142.67021 c -2.66993,-9.69694 -7.83783,-17.56757 -2.43244,-26.48649 8.59011,-13.77527 15.82708,-2.99625 28.00412,-5.38619 4.35943,-0.44217 10.51807,-0.30625 13.07928,6.21622 2.84044,7.23354 5.24146,16.28974 -3.04649,25.04471 -15.47477,13.75166 -28.734,20.00694 -35.60447,0.61175 z" id="path24074"/> <ellipse style="fill:#ffff00;stroke:none;stroke-width:0.41297;stroke-linecap:square;stroke-miterlimit:4;stroke-dasharray:none;paint-order:stroke markers fill" id="ellipse24076" cx="241.87315" cy="121.14034" rx="1.0199633" ry="1.5057849"/> <ellipse style="fill:#ffff00;stroke:none;stroke-width:0.41297;stroke-linecap:square;stroke-miterlimit:4;stroke-dasharray:none;paint-order:stroke markers fill" id="ellipse24078" cx="245.65694" cy="144.92412" rx="1.0199633" ry="1.5057849"/> <ellipse style="fill:#ffff00;stroke:none;stroke-width:0.41297;stroke-linecap:square;stroke-miterlimit:4;stroke-dasharray:none;paint-order:stroke markers fill" id="ellipse24080" cx="237.68398" cy="135.05925" rx="1.0199633" ry="1.5057849"/> <ellipse style="fill:#ffff00;stroke:none;stroke-width:0.41297;stroke-linecap:square;stroke-miterlimit:4;stroke-dasharray:none;paint-order:stroke markers fill" id="ellipse24082" cx="248.62993" cy="131.27547" rx="1.0199633" ry="1.5057849"/> <ellipse style="fill:#ffff00;stroke:none;stroke-width:0.41297;stroke-linecap:square;stroke-miterlimit:4;stroke-dasharray:none;paint-order:stroke markers fill" id="ellipse24084" cx="258.22455" cy="141.95114" rx="1.0199633" ry="1.5057849"/> <ellipse style="fill:#ffff00;stroke:none;stroke-width:0.41297;stroke-linecap:square;stroke-miterlimit:4;stroke-dasharray:none;paint-order:stroke markers fill" id="ellipse24086" cx="258.49481" cy="132.49168" rx="1.0199633" ry="1.5057849"/> <ellipse style="fill:#ffff00;stroke:none;stroke-width:0.41297;stroke-linecap:square;stroke-miterlimit:4;stroke-dasharray:none;paint-order:stroke markers fill" id="ellipse24088" cx="253.22453" cy="119.38359" rx="1.0199633" ry="1.5057849"/> <ellipse style="fill:#ffff00;stroke:none;stroke-width:0.41297;stroke-linecap:square;stroke-miterlimit:4;stroke-dasharray:none;paint-order:stroke markers fill" id="ellipse24090" cx="262.68402" cy="121.81602" rx="1.0199633" ry="1.5057849"/> <ellipse style="fill:#ffff00;stroke:none;stroke-width:0.41297;stroke-linecap:square;stroke-miterlimit:4;stroke-dasharray:none;paint-order:stroke markers fill" id="ellipse24092" cx="266.8732" cy="130.46468" rx="1.0199633" ry="1.5057849"/> <ellipse style="fill:#ffff00;stroke:none;stroke-width:0.41297;stroke-linecap:square;stroke-miterlimit:4;stroke-dasharray:none;paint-order:stroke markers fill" id="ellipse24094" cx="241.87315" cy="121.14034" rx="1.0199633" ry="1.5057849"/> <path style="opacity:1;fill:#ffffff;stroke:none;stroke-width:0.113436px;stroke-linecap:butt;stroke-linejoin:miter;stroke-opacity:1" d="m 230.81418,122.63726 c 0.49556,-2.72156 1.97353,-5.70059 2.80155,-6.693 1.86933,-2.43786 4.24975,-3.26239 4.98962,-0.61173 1.08698,3.96544 -1.91605,5.96992 -3.19858,8.50047 -0.88254,2.25832 -0.84168,4.83332 -2.06557,6.51264 -3.40788,1.95085 -3.15985,-6.17576 -2.52702,-7.70838 z" id="path24096"/> </g> <g id="g24108" transform="rotate(-11.562703,291.81801,116.1262)"> <path style="fill:#005500;stroke:none;stroke-width:0.264583px;stroke-linecap:butt;stroke-linejoin:miter;stroke-opacity:1" d="m 257.29729,114.05405 c 0,0 4.46682,-9.90587 -0.5,-17.181996 -4.96682,-7.276128 -5.99681,-6.512806 -6.32969,-5.095935 -0.33289,1.416869 -2.51575,5.002604 6.82969,22.277931 z" id="path24100"/> <path style="fill:#00aa00;stroke:none;stroke-width:0.264583px;stroke-linecap:butt;stroke-linejoin:miter;stroke-opacity:1" d="m 257.29729,114.05405 c 0,0 -2.02703,-10.67567 -10.27027,-13.78378 -8.24324,-3.10811 -8.64865,-1.891892 -8.10811,-0.54054 0.54054,1.35135 0.81081,5.54054 18.37838,14.32432 z" id="path24102"/> <path style="fill:#008000;stroke:none;stroke-width:0.264583px;stroke-linecap:butt;stroke-linejoin:miter;stroke-opacity:1" d="m 257.29729,114.05405 c 0,0 10.06475,-4.09628 11.48297,-12.79111 1.41823,-8.694824 0.14588,-8.851952 -1.07203,-8.055076 -1.21792,0.796869 -5.27114,1.889476 -10.41094,20.846186 z" id="path24104"/> <path style="fill:#00aa00;stroke:none;stroke-width:0.264583px;stroke-linecap:butt;stroke-linejoin:miter;stroke-opacity:1" d="m 257.29729,114.05405 c 0,0 10.60105,2.3867 16.73163,-3.94003 6.13057,-6.32671 5.17597,-7.18245 3.72112,-7.22404 -1.45486,-0.0416 -5.40588,-1.45997 -20.45275,11.16407 z" id="path24106"/> </g> </g> <g id="g24118" transform="matrix(0.17462445,0,0,0.17462445,104.51512,109.64537)"> <circle style="fill:#2a7fff;stroke:none;stroke-width:6.13908;stroke-linecap:square;paint-order:stroke markers fill" id="circle24112" cx="258.93506" cy="267.76767" r="32.359158"/> <path style="fill:none;stroke:#003380;stroke-width:1.32292;stroke-linecap:square;stroke-miterlimit:4;stroke-dasharray:none;paint-order:stroke markers fill" id="path24114" transform="matrix(0.74743872,-0.25160681,0.25160681,0.74743872,-3.537712,130.92836)" d="m 253.78357,254.44647 10.0433,-1.66453 -8.59866,5.4499 4.68661,9.03737 -7.8403,-6.49369 -7.1468,7.24993 3.75308,-9.46323 -9.10358,-4.55666 10.15984,0.6451 1.52048,-10.06611 z"/> <path style="opacity:0.75;fill:#ffffff;stroke:none;stroke-width:0.154753px;stroke-linecap:butt;stroke-linejoin:miter;stroke-opacity:1" d="m 276.04127,248.12733 c 3.11435,1.29943 6.28369,4.1433 7.25354,5.60075 2.42456,3.32991 2.79682,7.11252 -0.54957,7.7046 -5.00115,0.85555 -6.61919,-4.11003 -9.30445,-6.5669 -2.46354,-1.79443 -5.54075,-2.24932 -7.22727,-4.4462 -1.45042,-5.57 8.16456,-3.56153 9.82775,-2.29225 z" id="path24116"/> </g> <g id="g24126" transform="matrix(-0.1059858,0,0,0.1059858,155.18616,132.46676)"> <circle style="fill:#2a7fff;stroke:none;stroke-width:6.13908;stroke-linecap:square;paint-order:stroke markers fill" id="circle24120" cx="258.93506" cy="267.76767" r="32.359158"/> <path style="fill:none;stroke:#003380;stroke-width:1.32292;stroke-linecap:square;stroke-miterlimit:4;stroke-dasharray:none;paint-order:stroke markers fill" id="path24122" transform="matrix(0.74743872,-0.25160681,0.25160681,0.74743872,-3.537712,130.92836)" d="m 253.78357,254.44647 10.0433,-1.66453 -8.59866,5.4499 4.68661,9.03737 -7.8403,-6.49369 -7.1468,7.24993 3.75308,-9.46323 -9.10358,-4.55666 10.15984,0.6451 1.52048,-10.06611 z"/> <path style="opacity:0.75;fill:#ffffff;stroke:none;stroke-width:0.154753px;stroke-linecap:butt;stroke-linejoin:miter;stroke-opacity:1" d="m 276.04127,248.12733 c 3.11435,1.29943 6.28369,4.1433 7.25354,5.60075 2.42456,3.32991 2.79682,7.11252 -0.54957,7.7046 -5.00115,0.85555 -6.61919,-4.11003 -9.30445,-6.5669 -2.46354,-1.79443 -5.54075,-2.24932 -7.22727,-4.4462 -1.45042,-5.57 8.16456,-3.56153 9.82775,-2.29225 z" id="path24124"/> </g> <g id="g24134" transform="matrix(0.11839869,0.07528133,-0.07528133,0.11839869,106.80394,105.87416)"> <circle style="fill:#2a7fff;stroke:none;stroke-width:6.13908;stroke-linecap:square;paint-order:stroke markers fill" id="circle24128" cx="258.93506" cy="267.76767" r="32.359158"/> <path style="fill:none;stroke:#003380;stroke-width:1.32292;stroke-linecap:square;stroke-miterlimit:4;stroke-dasharray:none;paint-order:stroke markers fill" id="path24130" transform="matrix(0.74743872,-0.25160681,0.25160681,0.74743872,-3.537712,130.92836)" d="m 253.78357,254.44647 10.0433,-1.66453 -8.59866,5.4499 4.68661,9.03737 -7.8403,-6.49369 -7.1468,7.24993 3.75308,-9.46323 -9.10358,-4.55666 10.15984,0.6451 1.52048,-10.06611 z"/> <path style="opacity:0.75;fill:#ffffff;stroke:none;stroke-width:0.154753px;stroke-linecap:butt;stroke-linejoin:miter;stroke-opacity:1" d="m 276.04127,248.12733 c 3.11435,1.29943 6.28369,4.1433 7.25354,5.60075 2.42456,3.32991 2.79682,7.11252 -0.54957,7.7046 -5.00115,0.85555 -6.61919,-4.11003 -9.30445,-6.5669 -2.46354,-1.79443 -5.54075,-2.24932 -7.22727,-4.4462 -1.45042,-5.57 8.16456,-3.56153 9.82775,-2.29225 z" id="path24132"/> </g> <g id="g24142" transform="matrix(0.11839869,0.07528133,-0.07528133,0.11839869,111.46823,110.53845)"> <circle style="fill:#2a7fff;stroke:none;stroke-width:6.13908;stroke-linecap:square;paint-order:stroke markers fill" id="circle24136" cx="258.93506" cy="267.76767" r="32.359158"/> <path style="fill:none;stroke:#003380;stroke-width:1.32292;stroke-linecap:square;stroke-miterlimit:4;stroke-dasharray:none;paint-order:stroke markers fill" id="path24138" transform="matrix(0.74743872,-0.25160681,0.25160681,0.74743872,-3.537712,130.92836)" d="m 253.78357,254.44647 10.0433,-1.66453 -8.59866,5.4499 4.68661,9.03737 -7.8403,-6.49369 -7.1468,7.24993 3.75308,-9.46323 -9.10358,-4.55666 10.15984,0.6451 1.52048,-10.06611 z"/> <path style="opacity:0.75;fill:#ffffff;stroke:none;stroke-width:0.154753px;stroke-linecap:butt;stroke-linejoin:miter;stroke-opacity:1" d="m 276.04127,248.12733 c 3.11435,1.29943 6.28369,4.1433 7.25354,5.60075 2.42456,3.32991 2.79682,7.11252 -0.54957,7.7046 -5.00115,0.85555 -6.61919,-4.11003 -9.30445,-6.5669 -2.46354,-1.79443 -5.54075,-2.24932 -7.22727,-4.4462 -1.45042,-5.57 8.16456,-3.56153 9.82775,-2.29225 z" id="path24140"/> </g> </g> </g> </svg>